<?xml version="1.0" encoding="UTF-8"?>
<svg xmlns="http://www.w3.org/2000/svg" xmlns:xlink="http://www.w3.org/1999/xlink" width="128px" height="128px" viewBox="0 0 128 128" version="1.1">
<g id="surface1">
<path style=" stroke:none;fill-rule:nonzero;fill:rgb(0%,0%,0%);fill-opacity:1;" d="M 61.238281 27.875 C 55.875 28.726562 50.925781 31.949219 47.800781 36.625 C 46.199219 39.039062 45.25 41.738281 44.875 44.9375 C 44.8125 45.5625 44.75 48.238281 44.75 50.898438 L 44.75 55.75 L 43.949219 55.75 C 41.523438 55.75 39.851562 56.699219 38.914062 58.601562 L 38.4375 59.550781 L 38.398438 73.113281 C 38.375 82.863281 38.398438 86.949219 38.5 87.601562 C 39.074219 91.261719 41.476562 94.386719 44.726562 95.699219 C 46.6875 96.488281 45.375 96.4375 64.0625 96.4375 C 77.5625 96.4375 81.1875 96.398438 81.6875 96.273438 C 84.4375 95.5625 86.800781 93.851562 88.148438 91.601562 C 88.875 90.386719 89.351562 89.0625 89.5625 87.664062 C 89.738281 86.601562 89.75 84.636719 89.726562 73.125 L 89.6875 59.8125 L 89.398438 59.101562 C 88.960938 58.011719 88.238281 57.136719 87.351562 56.585938 C 86.363281 55.988281 85.949219 55.875 84.539062 55.789062 L 83.375 55.710938 L 83.375 51.261719 C 83.375 45.238281 83.199219 43.585938 82.289062 40.8125 C 80.960938 36.773438 77.789062 32.914062 73.835938 30.511719 C 72.136719 29.476562 69.539062 28.449219 67.625 28.050781 C 66.523438 27.824219 62.300781 27.710938 61.238281 27.875 Z M 67.148438 34.050781 C 69.476562 34.636719 71.585938 35.863281 73.449219 37.6875 C 75 39.210938 75.976562 40.789062 76.6875 42.925781 C 77.398438 45.039062 77.5 46.074219 77.5 51.289062 L 77.5 55.875 L 64.351562 55.875 C 57.113281 55.875 51.0625 55.835938 50.914062 55.800781 L 50.625 55.726562 L 50.625 50.949219 C 50.625 45.761719 50.726562 44.539062 51.3125 42.8125 C 52.488281 39.3125 55.050781 36.375 58.175781 34.9375 C 59.335938 34.398438 60.976562 33.898438 62.0625 33.75 C 63.5 33.5625 65.761719 33.6875 67.148438 34.050781 Z M 65.4375 65.050781 C 68.101562 65.761719 70 68.648438 69.699219 71.574219 C 69.523438 73.238281 68.851562 74.550781 67.539062 75.738281 L 66.738281 76.460938 L 66.863281 77.199219 C 67.136719 78.738281 67.648438 83.238281 67.664062 84.289062 C 67.6875 85.386719 67.6875 85.398438 67.289062 85.75 C 66.710938 86.261719 65.8125 86.414062 63.5 86.351562 C 61.851562 86.3125 61.488281 86.261719 61.136719 86.0625 C 60.476562 85.675781 60.226562 85.25 60.226562 84.539062 C 60.238281 83.976562 60.863281 78.699219 61.113281 77.113281 L 61.226562 76.4375 L 60.375 75.613281 C 59.488281 74.726562 58.925781 73.863281 58.550781 72.75 C 58.226562 71.800781 58.226562 69.824219 58.550781 68.851562 C 59.101562 67.148438 60.574219 65.636719 62.164062 65.136719 C 63.085938 64.835938 64.539062 64.800781 65.4375 65.050781 Z M 65.4375 65.050781 "/>
</g>
</svg>
