<?xml version="1.0" encoding="UTF-8"?>
<svg xmlns="http://www.w3.org/2000/svg"
     width="64" height="64"
     viewBox="0 0 128 128"
     fill="#6C2BD9">
  <path d="M4899 8010 c-429 -68 -825 -326 -1075 -700 -128 -193 -204 -409 -234
  -665 -5 -50 -10 -264 -10 -477 l0 -388 -64 0 c-194 0 -328 -76 -403 -228 l-38
  -76 -3 -1085 c-2 -780 0 -1107 8 -1159 46 -293 238 -543 498 -648 157 -63 52
  -59 1547 -59 1080 0 1370 3 1410 13 220 57 409 194 517 374 58 97 96 203 113
  315 14 85 15 242 13 1163 l-3 1065 -23 57 c-35 87 -93 157 -164 201 -79 48
  -112 57 -225 64 l-93 6 0 356 c0 482 -14 614 -87 836 -106 323 -360 632 -676
  824 -136 83 -344 165 -497 197 -88 18 -426 27 -511 14z m473 -494 c186 -47
  355 -145 504 -291 124 -122 202 -248 259 -419 57 -169 65 -252 65 -669 l0
  -367 -1052 0 c-579 0 -1063 3 -1075 6 l-23 6 0 382 c0 415 8 513 55 651 94
  280 299 515 549 630 93 43 224 83 311 95 115 15 296 5 407 -24z m-137 -2480
  c213 -57 365 -288 341 -522 -14 -133 -68 -238 -173 -333 l-64 -58 10 -59 c22
  -123 63 -483 64 -567 2 -88 2 -89 -30 -117 -46 -41 -118 -53 -303 -48 -132 3
  -161 7 -189 23 -53 31 -73 65 -73 122 1 45 51 467 71 594 l9 54 -68 66 c-71
  71 -116 140 -146 229 -26 76 -26 234 0 312 44 136 162 257 289 297 74 24 190
  27 262 7z"/>
</svg>
